<svg xmlns="http://www.w3.org/2000/svg" width="82.25" height="64.033" viewBox="0 0 82.25 64.033"><defs><style>.a{fill:#f60;}</style></defs><path class="a" d="M58.228,42.936l6.408,6.409,15.87-15.871,1.376,1.375L79.46,37.271a17.5,17.5,0,0,1,2.724,10.974h-.028a17.3,17.3,0,0,1-29.485,10.7,16.733,16.733,0,0,1-2.422-3.026H0V0H73.74V31.8a16.109,16.109,0,0,1,2.09,1.485l-2.422,3a13.5,13.5,0,0,0-9.187-3,13.446,13.446,0,0,0,.687,26.874A13.419,13.419,0,0,0,78.3,47.888h0A13.243,13.243,0,0,0,76.627,40.1l-11.3,11.3-.688.688-.687-.688-7.1-7.1Zm-9.792,9.1a17.624,17.624,0,0,1-.853-5.337A17.369,17.369,0,0,1,64.031,29.4a17.5,17.5,0,0,1,5.831.715V6.574L38.232,37.71l-1.347,1.347L35.509,37.71,3.878,6.574V52.041ZM67.084,3.879H6.683l30.2,29.733Z"/></svg>