<svg xmlns="http://www.w3.org/2000/svg" width="158.272" height="60.167" viewBox="0 0 158.272 60.167"><defs><style>.a{fill:#182c4b;}.a,.b,.c{fill-rule:evenodd;}.b{fill:#eb671b;}.c{fill:#fff;}</style></defs><g transform="translate(-431.06 -721.463)"><path class="a" d="M493.74,757.978l-4.662-.013c-.907,0-1.1-.087-1.144-.124s-.105-.211-.1-.988l.01-4.406a.151.151,0,0,1,.08-.086l4.48.013a1.589,1.589,0,0,0,.925-.269,1.249,1.249,0,0,0,.512-.993,1.292,1.292,0,0,0-1.383-1.205l-4.5-.011a.148.148,0,0,1-.107-.055c0-.08.013-4.761.013-4.761,0-.021.044-.061.13-.061l5.41.014a1.245,1.245,0,1,0-.02-2.466l-7.736-.02a1.637,1.637,0,0,0-1.435,1.568l-.039,14.615a1.614,1.614,0,0,0,1.47,1.692l7.93.02c1.457,0,1.573-.949,1.574-1.24a1.283,1.283,0,0,0-1.406-1.225Zm15.468.455c-.641-1.08-2.779-4.558-3.8-6.278a4.031,4.031,0,0,0,2.506-1.254,5.25,5.25,0,0,0,1.1-3.781,4.991,4.991,0,0,0-1.934-3.365,7.94,7.94,0,0,0-4.428-1.207l-3.4-.008a1.631,1.631,0,0,0-1.527,1.565l-.037,14.1a2.3,2.3,0,0,0,2.453,2.234,1.178,1.178,0,0,0,1.2-1.291l.017-6.2a.952.952,0,0,1,.067-.478l3.96,6.336a3.759,3.759,0,0,0,1.446,1.395,4.1,4.1,0,0,0,1.689.272,1.066,1.066,0,0,0,.842-.335.948.948,0,0,0,.227-.616,1.5,1.5,0,0,0-.179-.767l-.191-.321Zm-4.915-9.042c-.566.4-.8.5-2.806.5l-.133-.006c0-.208.013-4.787.013-4.787a.151.151,0,0,1,.076-.084l.99,0c1.879,0,2.83.8,2.825,2.376a2.287,2.287,0,0,1-.966,2Zm18.19-6.791-10.954-.029a1.24,1.24,0,0,0-1.411,1.193,1.313,1.313,0,0,0,1.428,1.273l3.576.01.042,0c0,.031.006.056.006.1l-.036,13.427a2.222,2.222,0,0,0,2.337,1.928,1.32,1.32,0,0,0,1.295-1.241l.037-14.1,0-.1c.073-.006.161-.01.29-.01l3.335.01c1.224,0,1.409-.792,1.409-1.266a1.245,1.245,0,0,0-1.357-1.2Zm4.827.194a.743.743,0,0,0-.163-.018,1.165,1.165,0,0,0-1.222,1.241l-.039,14.429a1.915,1.915,0,0,0,1.163,1.692l.841.3a1.172,1.172,0,0,0,1.115-.1,1.306,1.306,0,0,0,.513-1.117l.038-14.381c0-.712-.385-1.65-2.245-2.049Zm11.461,6.327c-2.482-1.366-2.729-1.868-2.727-2.771,0-.556,1.352-1.547,2.676-1.545l2.637.007c1.559,0,1.643-1.111,1.643-1.334a1.422,1.422,0,0,0-1.428-1.295l-3.544-.008a6.414,6.414,0,0,0-3.976,1.407,4.305,4.305,0,0,0-1.5,3.435,4.675,4.675,0,0,0,1.244,3.255c.633.731.747.794,2.6,1.826l1.082.6c2.589,1.421,2.858,1.979,2.856,2.917,0,1.045-1.446,2.319-3.125,2.313l-2.888-.006a1.331,1.331,0,1,0-.055,2.626l3.379.01c3.815.01,6.382-2.17,6.391-5.424a4.941,4.941,0,0,0-1.317-3.442c-.79-.847-1.049-1.014-3.954-2.574Zm8.946-6.274a.916.916,0,0,0-.161-.018,1.169,1.169,0,0,0-1.227,1.241l-.037,14.43a1.91,1.91,0,0,0,1.162,1.691l.84.305a1.177,1.177,0,0,0,1.116-.1,1.311,1.311,0,0,0,.512-1.117l.037-14.38c0-.715-.385-1.651-2.242-2.05Zm32.605.1a1.039,1.039,0,0,0-.816.271,1.383,1.383,0,0,0-.447,1.012s-.018,6.348-.025,9.772l-5.454-9.34c-.007-.016-.018-.03-.025-.044a3.6,3.6,0,0,0-3.3-1.679,1.2,1.2,0,0,0-1.292,1.242l-.038,14.71a1.724,1.724,0,0,0,1.587,1.76,1.2,1.2,0,0,0,1.2-1.334s.019-7.343.03-10.961c1.9,3.288,6.188,10.714,6.188,10.714.017.027.035.052.051.078a3.09,3.09,0,0,0,2.461,1.482,1.431,1.431,0,0,0,1.079-.325,1.27,1.27,0,0,0,.357-.96l.038-14.616a1.7,1.7,0,0,0-1.6-1.781Zm-98.539.743a1.2,1.2,0,0,0-1.364-1.193l-.99,0a8.637,8.637,0,0,0-2.514.1l-.311.074a9.934,9.934,0,0,0-3.538,1.6,7.385,7.385,0,0,0-3.63,6.214c0,.008.018,1.806.018,1.806a7.308,7.308,0,0,0,3.575,6.219,9.918,9.918,0,0,0,3.519,1.62l.323.078a9.022,9.022,0,0,0,2.571.112l.929,0a1.2,1.2,0,0,0,1.37-1.185c0-.6-.709-1.007-1.176-1.008l.068,0-.6-.042-2.016-.006h0l-.162-.021-.532-.066a4.758,4.758,0,0,1-1.908-.686,5.637,5.637,0,0,1-2.23-4.047s0-.075,0-.212c0-.772-.007-3.389-.007-3.389a5.617,5.617,0,0,1,2.266-4.181,4.717,4.717,0,0,1,1.933-.681l.708-.083,1.982.006.6-.037-.068,0c.469,0,1.18-.4,1.184-1Zm82.877,6.361-3.729-.01c-.975,0-1.415.576-1.416,1.151,0,.73.574,1.122,1.715,1.164a10.468,10.468,0,0,1,1.351.091c0,.066.006.131.006.131l-.013,5.432a.664.664,0,0,1-.06.3l-1.561,0h0l-.16-.021-.535-.067a4.76,4.76,0,0,1-1.91-.686,5.645,5.645,0,0,1-2.23-4.048c0,.006,0-.1,0-.288,0-.855,0-3.312,0-3.312a5.612,5.612,0,0,1,2.266-4.182,4.675,4.675,0,0,1,1.932-.68l.709-.082,1.981.006.6-.038-.067,0c.468,0,1.18-.4,1.18-1a1.2,1.2,0,0,0-1.363-1.192l-.99,0a8.735,8.735,0,0,0-2.514.1l-.311.076a9.872,9.872,0,0,0-3.538,1.6,7.384,7.384,0,0,0-3.628,6.213c0,.008.014,1.808.014,1.808a7.325,7.325,0,0,0,3.58,6.219,9.861,9.861,0,0,0,3.515,1.619l.187.039c0,.021.239.052.239.052l.079.011a10.137,10.137,0,0,0,1.79.086l1.972.023.9.008a1.494,1.494,0,0,0,1.374-1.388l.02-7.691a1.512,1.512,0,0,0-1.389-1.441Z" transform="translate(7.413 4.001)"/><path class="b" d="M458.709,721.465c-2.294.081-4.151,1.8-4.842,4.483l-.016.061a20.681,20.681,0,0,0-.832,5.719,12.66,12.66,0,0,0,.492,3.628,16.2,16.2,0,0,1-1.5.977,18.7,18.7,0,0,0-14.945-5.669h-.006c-.113.007-.221,0-.332.014l.315-.013a5.773,5.773,0,0,0-5.611,3.547,5.608,5.608,0,0,0-.372,2,6.144,6.144,0,0,0,2.014,4.512,17.749,17.749,0,0,0,15.881,5.051,17.848,17.848,0,0,1,.774,2.108,11.563,11.563,0,0,1,.286,2.563c-7.8,4.429-14.1,12.573-17.472,23a9.809,9.809,0,0,0-.531,2.99,4.955,4.955,0,0,0,2.409,4.527c2.429,1.415,5.207.369,6.932-1.281.172-.167.123-.124.172-.167,8.6-7.593,14.083-15.961,15.824-23.748.252-.09.507-.164.762-.242A20.982,20.982,0,0,0,464,764.883c3.218,2.855,5.967,1.506,6.735,1.026,2.133-1.344,3.007-4.215,2.17-7.151l.07.282c-1.174-5.644-3.931-9.39-7.885-10.969a5.455,5.455,0,0,1,.43-1.736,17,17,0,0,1,1.976-3.113,17.693,17.693,0,0,0,12.65-5.174,5.6,5.6,0,0,0,1.62-3.779,4.447,4.447,0,0,0-.443-1.959,4.635,4.635,0,0,0-4.814-2.518l-.078.007-.079.008a22.784,22.784,0,0,0-11.943,5.283,9.525,9.525,0,0,1-1.1-.293,14.637,14.637,0,0,0,.9-4.971,16.07,16.07,0,0,0-.663-4.553l-.021-.072-.024-.069a4.876,4.876,0,0,0-4.785-3.669Zm-25.6,19.3c-.012-.011-.018-.025-.031-.036-.052-.051-.107-.1-.16-.149l.191.185Z"/><path class="c" d="M458.954,722.956c-.8,0-1.747.72-2.367,2.205a15.9,15.9,0,0,0-1.006,5.6,8.274,8.274,0,0,0,.873,4.091,5.891,5.891,0,0,1-1.021,1.1,22.679,22.679,0,0,1-4.221,2.718,16,16,0,0,0-11.883-6.382,12.119,12.119,0,0,0-3.581.16,2.772,2.772,0,0,0-2.083,2.133,3.73,3.73,0,0,0,1.1,3.25,15.18,15.18,0,0,0,15.5,4,18.752,18.752,0,0,1,1.915,4.393,14.332,14.332,0,0,1,.378,3.363c0,.484-.027.975-.07,1.471a33.676,33.676,0,0,0-14.728,15.355c-2.251,4.68-3.264,7.871-3.226,9.079a2.443,2.443,0,0,0,1.126,2.236c1.014.591,2.665.62,5.738-2.654,8.476-8.034,12.564-16.22,13.563-22.191a21.484,21.484,0,0,1,3.2-1.117,8.724,8.724,0,0,1,1.823-.2,18.883,18.883,0,0,0,5.661,10.378c1.744,1.55,3.012,1.149,3.611.772.388-.242,1.644-1.305,1.147-3.751a14.63,14.63,0,0,0-2.673-6.59,9.173,9.173,0,0,0-5.36-3.328,10.507,10.507,0,0,1,.465-4.328,16.873,16.873,0,0,1,3.375-5.08c4.168.148,8.846-1.043,11.94-4.353a2.66,2.66,0,0,0,.733-2.815c-.236-.529-.787-1.167-2.245-1.051l-.028,0-.029,0a19.8,19.8,0,0,0-11.261,5.5,12.034,12.034,0,0,1-4.674-1.4,5.49,5.49,0,0,1-.8-.6,11.942,11.942,0,0,0,1.655-6.04,10.666,10.666,0,0,0-.62-3.886c-.537-1.53-1.46-2.043-1.931-2.044ZM437.1,734.967a14.955,14.955,0,0,1,5.41.581,13.39,13.39,0,0,1,6,3.9,13.131,13.131,0,0,1-6.873-.331,12.271,12.271,0,0,1-4.393-2.623c-.591-.561-1.236-1.357-.146-1.531Zm19.356,3.785a11.041,11.041,0,0,0,1.8-1.637,7.512,7.512,0,0,0,1.454.976,16.039,16.039,0,0,0,3.306,1.155,16.627,16.627,0,0,0-2.781,4.749,14.409,14.409,0,0,0-.556,4.9,15.037,15.037,0,0,0-1.911.211l-.043.008-.042.01a25.408,25.408,0,0,0-2.436.764,18.74,18.74,0,0,0-.518-4.563,19.6,19.6,0,0,0-1.909-4.434,24.873,24.873,0,0,0,3.64-2.135Zm-13.744,24.609a31.5,31.5,0,0,1,9.134-8.838c-1.737,6.472-6.538,13.7-13.95,20.207l-.637.4c-.117-.309,1.618-5.733,5.454-11.772Zm24.722-3.433a16,16,0,0,1-4.6-7.973c2.461.888,4.042,3.247,4.863,7.185l.01.048.013.048a2.794,2.794,0,0,1,.106.746,1.8,1.8,0,0,1-.02.232,2.97,2.97,0,0,1-.369-.285Z" transform="translate(0.492 0.288)"/><path class="a" d="M477.912,731.583a1.46,1.46,0,0,0-.833-.346,9.626,9.626,0,0,0-2.052.243,17.991,17.991,0,0,0-1.847.477,19.086,19.086,0,0,0-3.492,1.474,21.084,21.084,0,0,0-4.444,3.27A11.338,11.338,0,0,1,459.849,735a4.937,4.937,0,0,1-.9-.778,11.373,11.373,0,0,0,1.775-5.164,12.088,12.088,0,0,0-.2-3.46c-.062-.338-.147-.679-.246-1.032a2.655,2.655,0,0,0-.73-1.291,1.353,1.353,0,0,0-1.15-.315,1.629,1.629,0,0,0-.878.537,3.471,3.471,0,0,0-.7,1.351,18.61,18.61,0,0,0-.765,5.519,8.284,8.284,0,0,0,.677,3.181,5.662,5.662,0,0,0,.406.754,11.326,11.326,0,0,1-1.627,1.732,19.344,19.344,0,0,1-4.514,2.646,15.762,15.762,0,0,0-4.194-3.891,14.784,14.784,0,0,0-6.974-2.222,10.138,10.138,0,0,0-4.229.351,1.678,1.678,0,0,0-.861,1.581,4.031,4.031,0,0,0,1.386,2.347,16.969,16.969,0,0,0,3.02,2.142,16.663,16.663,0,0,0,4.478,1.616,16.07,16.07,0,0,0,5.672-.181c.363-.092.728-.182,1.089-.289.205.32.4.648.591.988a20.18,20.18,0,0,1,1.564,3.742,14.1,14.1,0,0,1,.5,4.337c-.007.425-.037.907-.094,1.437a26.865,26.865,0,0,0-2.683,1.5,33.591,33.591,0,0,0-9.933,10.107,44.541,44.541,0,0,0-3.479,6.579c-.965,2.242-1.833,4.456-1.821,5.8a1.8,1.8,0,0,0,1.071,1.846,2.275,2.275,0,0,0,1.842-.205,28.358,28.358,0,0,0,3.96-3.488,64.144,64.144,0,0,0,5.1-5.741,41.257,41.257,0,0,0,5.863-10.074,24.9,24.9,0,0,0,1.441-5.315,14.74,14.74,0,0,1,6.016-1.513,19.631,19.631,0,0,0,2.106,6.068,17.066,17.066,0,0,0,2.877,3.884,6.132,6.132,0,0,0,1.732,1.329,2.017,2.017,0,0,0,1.3.151,1.813,1.813,0,0,0,1.034-.8,4.608,4.608,0,0,0,.245-2.766c-.11-.455-.184-.782-.181-.766a16.206,16.206,0,0,0-1-3.028,10.5,10.5,0,0,0-2.082-3.168,8.032,8.032,0,0,0-4.48-2.255c-.075-.012-.154-.018-.23-.029a15.431,15.431,0,0,1,.144-3.646,7.955,7.955,0,0,1,.31-1.112,17.04,17.04,0,0,1,3.711-5.74,17.091,17.091,0,0,0,7.182-1.1,13,13,0,0,0,3.33-1.92,9.914,9.914,0,0,0,1.447-1.394,2.453,2.453,0,0,0,.525-1.208,1.234,1.234,0,0,0-.385-1.036Zm-28.881,7.779a13.8,13.8,0,0,1-9.1-.452c-4.029-1.612-5.669-4.01-4.517-5.325.457-.521,1.644-.538,2-.542a15.7,15.7,0,0,1,2.349.144,14.6,14.6,0,0,1,6.435,2.5,15.383,15.383,0,0,1,3.51,3.46c-.227.074-.453.147-.68.21Zm-2.058,25.185c-2.892,4.206-9.5,10.909-10.314,10.5-.41-.208.266-2.645,1.363-5.215a53.462,53.462,0,0,1,3.551-6.778,29.876,29.876,0,0,1,11.078-10.588c-.112.554-1.039,5.632-5.678,12.084Zm20.114-9.752a14.7,14.7,0,0,1,.909,2.77c0,.016.054.226.185.78a4.533,4.533,0,0,1,.088.966c0,.29-.079.965-.644.731a4.944,4.944,0,0,1-1.274-1.02,15.592,15.592,0,0,1-2.621-3.546,18.126,18.126,0,0,1-1.867-5.2,7.142,7.142,0,0,1,5.225,4.519Zm-9.333-27.185c.08-.5.174-.927.282-1.45a8.735,8.735,0,0,1,.457-1.5c.131-.245.183-.148.234-.024a6.915,6.915,0,0,1,.338,1.241,10.758,10.758,0,0,1,.181,3.046,9.931,9.931,0,0,1-1.18,3.928,6.455,6.455,0,0,1-.523-2.537,14.755,14.755,0,0,1,.211-2.707Zm2.9,16.024c-.076.205-.288.991-.322,1.176a15.616,15.616,0,0,0-.185,3.84,12.009,12.009,0,0,0-4.079.711c-.526.172-1.055.366-1.582.581.016-.248.024-.484.027-.708a15.043,15.043,0,0,0-.594-4.814,20.546,20.546,0,0,0-1.749-3.978c-.153-.26-.313-.512-.474-.76a19.454,19.454,0,0,0,4.641-2.558,12.861,12.861,0,0,0,1.715-1.7,7.236,7.236,0,0,0,.929.784,11.713,11.713,0,0,0,4.984,1.835,17.993,17.993,0,0,0-3.311,5.589Zm15.976-10.777c-.014.024-.031.045-.048.068a8.909,8.909,0,0,1-1.194,1.129,11.4,11.4,0,0,1-2.947,1.7,15.016,15.016,0,0,1-5.04,1.014,18.321,18.321,0,0,1,2.994-2.025,17.75,17.75,0,0,1,3.226-1.36,16.3,16.3,0,0,1,1.7-.44c.283-.074,1.069-.185,1.173-.2.187-.035.181.049.132.117Z" transform="translate(0.71 0.283)"/></g></svg>